<mxfile host="app.diagrams.net" modified="2020-11-29T23:26:46.550Z" agent="5.0 (X11; Linux x86_64) AppleWebKit/537.36 (KHTML, like Gecko) Chrome/87.0.4280.66 Safari/537.36" etag="1MuMJNVApOsJEIrQWDAZ" version="13.10.4" type="github">
  <diagram id="C5RBs43oDa-KdzZeNtuy" name="Page-1">
    <mxGraphModel dx="581" dy="154" grid="0" gridSize="10" guides="1" tooltips="1" connect="1" arrows="1" fold="1" page="0" pageScale="1" pageWidth="827" pageHeight="1169" math="0" shadow="0">
      <root>
        <mxCell id="WIyWlLk6GJQsqaUBKTNV-0" />
        <mxCell id="WIyWlLk6GJQsqaUBKTNV-1" parent="WIyWlLk6GJQsqaUBKTNV-0" />
        <mxCell id="XQ-rUl0E-wfzeUmkyLuw-1" value="KvExtension" style="swimlane;fontStyle=1;align=center;verticalAlign=top;childLayout=stackLayout;horizontal=1;startSize=26;horizontalStack=0;resizeParent=1;resizeParentMax=0;resizeLast=0;collapsible=1;marginBottom=0;" vertex="1" parent="WIyWlLk6GJQsqaUBKTNV-1">
          <mxGeometry x="897" y="650" width="160" height="86" as="geometry" />
        </mxCell>
        <mxCell id="XQ-rUl0E-wfzeUmkyLuw-2" value="+ executor: Executor" style="text;strokeColor=none;fillColor=none;align=left;verticalAlign=top;spacingLeft=4;spacingRight=4;overflow=hidden;rotatable=0;points=[[0,0.5],[1,0.5]];portConstraint=eastwest;" vertex="1" parent="XQ-rUl0E-wfzeUmkyLuw-1">
          <mxGeometry y="26" width="160" height="26" as="geometry" />
        </mxCell>
        <mxCell id="XQ-rUl0E-wfzeUmkyLuw-3" value="" style="line;strokeWidth=1;fillColor=none;align=left;verticalAlign=middle;spacingTop=-1;spacingLeft=3;spacingRight=3;rotatable=0;labelPosition=right;points=[];portConstraint=eastwest;" vertex="1" parent="XQ-rUl0E-wfzeUmkyLuw-1">
          <mxGeometry y="52" width="160" height="8" as="geometry" />
        </mxCell>
        <mxCell id="XQ-rUl0E-wfzeUmkyLuw-4" value="+ method(type): type" style="text;strokeColor=none;fillColor=none;align=left;verticalAlign=top;spacingLeft=4;spacingRight=4;overflow=hidden;rotatable=0;points=[[0,0.5],[1,0.5]];portConstraint=eastwest;" vertex="1" parent="XQ-rUl0E-wfzeUmkyLuw-1">
          <mxGeometry y="60" width="160" height="26" as="geometry" />
        </mxCell>
        <mxCell id="XQ-rUl0E-wfzeUmkyLuw-5" value="KeywordQueryEventListener" style="swimlane;fontStyle=1;align=center;verticalAlign=top;childLayout=stackLayout;horizontal=1;startSize=26;horizontalStack=0;resizeParent=1;resizeParentMax=0;resizeLast=0;collapsible=1;marginBottom=0;" vertex="1" parent="WIyWlLk6GJQsqaUBKTNV-1">
          <mxGeometry x="825" y="786" width="301" height="60" as="geometry" />
        </mxCell>
        <mxCell id="XQ-rUl0E-wfzeUmkyLuw-7" value="" style="line;strokeWidth=1;fillColor=none;align=left;verticalAlign=middle;spacingTop=-1;spacingLeft=3;spacingRight=3;rotatable=0;labelPosition=right;points=[];portConstraint=eastwest;" vertex="1" parent="XQ-rUl0E-wfzeUmkyLuw-5">
          <mxGeometry y="26" width="301" height="8" as="geometry" />
        </mxCell>
        <mxCell id="XQ-rUl0E-wfzeUmkyLuw-8" value="+ on_event(event, extension): RenderResultListAction" style="text;strokeColor=none;fillColor=none;align=left;verticalAlign=top;spacingLeft=4;spacingRight=4;overflow=hidden;rotatable=0;points=[[0,0.5],[1,0.5]];portConstraint=eastwest;" vertex="1" parent="XQ-rUl0E-wfzeUmkyLuw-5">
          <mxGeometry y="34" width="301" height="26" as="geometry" />
        </mxCell>
        <mxCell id="XQ-rUl0E-wfzeUmkyLuw-10" value="ItemEnterEventListener" style="swimlane;fontStyle=1;align=center;verticalAlign=top;childLayout=stackLayout;horizontal=1;startSize=26;horizontalStack=0;resizeParent=1;resizeParentMax=0;resizeLast=0;collapsible=1;marginBottom=0;" vertex="1" parent="WIyWlLk6GJQsqaUBKTNV-1">
          <mxGeometry x="825" y="873" width="301" height="60" as="geometry" />
        </mxCell>
        <mxCell id="XQ-rUl0E-wfzeUmkyLuw-11" value="" style="line;strokeWidth=1;fillColor=none;align=left;verticalAlign=middle;spacingTop=-1;spacingLeft=3;spacingRight=3;rotatable=0;labelPosition=right;points=[];portConstraint=eastwest;" vertex="1" parent="XQ-rUl0E-wfzeUmkyLuw-10">
          <mxGeometry y="26" width="301" height="8" as="geometry" />
        </mxCell>
        <mxCell id="XQ-rUl0E-wfzeUmkyLuw-12" value="+ on_event(event, extension): RenderResultListAction" style="text;strokeColor=none;fillColor=none;align=left;verticalAlign=top;spacingLeft=4;spacingRight=4;overflow=hidden;rotatable=0;points=[[0,0.5],[1,0.5]];portConstraint=eastwest;" vertex="1" parent="XQ-rUl0E-wfzeUmkyLuw-10">
          <mxGeometry y="34" width="301" height="26" as="geometry" />
        </mxCell>
        <mxCell id="XQ-rUl0E-wfzeUmkyLuw-15" value="" style="edgeStyle=orthogonalEdgeStyle;rounded=0;orthogonalLoop=1;jettySize=auto;html=1;" edge="1" parent="WIyWlLk6GJQsqaUBKTNV-1" source="XQ-rUl0E-wfzeUmkyLuw-13" target="XQ-rUl0E-wfzeUmkyLuw-14">
          <mxGeometry relative="1" as="geometry" />
        </mxCell>
        <mxCell id="XQ-rUl0E-wfzeUmkyLuw-13" value="KV Interface" style="shape=umlBoundary;whiteSpace=wrap;html=1;" vertex="1" parent="WIyWlLk6GJQsqaUBKTNV-1">
          <mxGeometry x="760" y="477" width="100" height="80" as="geometry" />
        </mxCell>
        <mxCell id="XQ-rUl0E-wfzeUmkyLuw-16" style="edgeStyle=orthogonalEdgeStyle;rounded=0;orthogonalLoop=1;jettySize=auto;html=1;entryX=0.5;entryY=0;entryDx=0;entryDy=0;" edge="1" parent="WIyWlLk6GJQsqaUBKTNV-1" source="XQ-rUl0E-wfzeUmkyLuw-14" target="XQ-rUl0E-wfzeUmkyLuw-1">
          <mxGeometry relative="1" as="geometry" />
        </mxCell>
        <mxCell id="XQ-rUl0E-wfzeUmkyLuw-14" value="KV Control" style="ellipse;shape=umlControl;whiteSpace=wrap;html=1;" vertex="1" parent="WIyWlLk6GJQsqaUBKTNV-1">
          <mxGeometry x="942" y="477" width="70" height="80" as="geometry" />
        </mxCell>
        <mxCell id="XQ-rUl0E-wfzeUmkyLuw-17" style="edgeStyle=orthogonalEdgeStyle;rounded=0;orthogonalLoop=1;jettySize=auto;html=1;entryX=0;entryY=0.5;entryDx=0;entryDy=0;" edge="1" parent="WIyWlLk6GJQsqaUBKTNV-1" source="XQ-rUl0E-wfzeUmkyLuw-2" target="XQ-rUl0E-wfzeUmkyLuw-5">
          <mxGeometry relative="1" as="geometry" />
        </mxCell>
        <mxCell id="XQ-rUl0E-wfzeUmkyLuw-18" style="edgeStyle=orthogonalEdgeStyle;rounded=0;orthogonalLoop=1;jettySize=auto;html=1;entryX=0;entryY=0.5;entryDx=0;entryDy=0;" edge="1" parent="WIyWlLk6GJQsqaUBKTNV-1" source="XQ-rUl0E-wfzeUmkyLuw-2" target="XQ-rUl0E-wfzeUmkyLuw-10">
          <mxGeometry relative="1" as="geometry">
            <Array as="points">
              <mxPoint x="782" y="676" />
              <mxPoint x="782" y="903" />
            </Array>
          </mxGeometry>
        </mxCell>
      </root>
    </mxGraphModel>
  </diagram>
</mxfile>
